<svg xmlns="http://www.w3.org/2000/svg" version="1.1" xmlns:xlink="http://www.w3.org/1999/xlink" xmlns:svgjs="http://svgjs.dev/svgjs" width="1500" height="1500" viewBox="0 0 1500 1500"><rect width="1500" height="1500" fill="#ffffff"></rect><g transform="matrix(0.6666666666666666,0,0,0.6666666666666666,249.39393939393938,438.5856950067477)"><svg viewBox="0 0 396 247" data-background-color="#ffffff" preserveAspectRatio="xMidYMid meet" height="935" width="1500" xmlns="http://www.w3.org/2000/svg" xmlns:xlink="http://www.w3.org/1999/xlink"><g id="tight-bounds" transform="matrix(1,0,0,1,0.2400000000000091,-0.09999999999999432)"><svg viewBox="0 0 395.52 247.2" height="247.2" width="395.52"><g><svg></svg></g><g><svg viewBox="0 0 395.52 247.2" height="247.2" width="395.52"><mask id="846f0c10-f18a-4bcd-9f8c-72a0d58315c5"><rect width="640" height="400" fill="white"></rect><g transform="matrix(1,0,0,1,99.47073529411763,37.08)"><svg viewBox="0 0 196.57852941176472 173.04" height="173.04" width="196.57852941176472"><g><svg viewBox="0 0 196.57852941176472 173.04" height="173.04" width="196.57852941176472"><g><svg viewBox="0 0 196.57852941176472 173.04" height="173.04" width="196.57852941176472"><g><svg viewBox="0 0 196.57852941176472 173.04" height="173.04" width="196.57852941176472"><g id="SvgjsG2225"><svg viewBox="0 0 196.57852941176472 173.04" height="173.04" width="196.57852941176472" id="SvgjsSvg2224"><g><svg viewBox="0 0 196.57852941176472 173.04" height="173.04" width="196.57852941176472"><g transform="matrix(1,0,0,1,0,0)"><svg width="196.57852941176472" viewBox="0.49999999999999956 -38.4 47.35 41.8" height="173.04" data-palette-color="#ef4444"><path d="M18.85-34.65Q19-35 19.45-35L19.45-35 22.05-35Q22.55-35 22.55-34.5L22.55-34.5 22.55-0.5Q22.55 0 22.05 0L22.05 0 19.5 0Q19 0 19-0.5L19-0.5 19-27.3Q19-27.45 18.93-27.45 18.85-27.45 18.75-27.35L18.75-27.35 13.55-16.55Q13.4-16.2 13.05-16.2L13.05-16.2Q12.65-16.2 12.5-16.55L12.5-16.55 7.3-27.3Q7.2-27.4 7.13-27.4 7.05-27.4 7.05-27.25L7.05-27.25 7.05-0.5Q7.05 0 6.55 0L6.55 0 4 0Q3.5 0 3.5-0.5L3.5-0.5 3.5-34.5Q3.5-35 4-35L4-35 6.6-35Q7.05-35 7.2-34.65L7.2-34.65 12.9-23.1Q12.95-23 13.05-23 13.15-23 13.2-23.1L13.2-23.1 18.85-34.65ZM36.45 0.4Q32.75 0.4 30.45-2.05 28.15-4.5 28.15-8.45L28.15-8.45 28.15-9.6Q28.15-10.1 28.65-10.1L28.65-10.1 31.1-10.1Q31.6-10.1 31.6-9.6L31.6-9.6 31.6-8.6Q31.6-5.95 32.95-4.33 34.3-2.7 36.45-2.7L36.45-2.7Q38.55-2.7 39.95-4.25 41.35-5.8 41.35-8.35L41.35-8.35Q41.35-10.05 40.67-11.28 40-12.5 38.92-13.43 37.85-14.35 35.35-16.25L35.35-16.25Q32.85-18.1 31.4-19.43 29.95-20.75 29.02-22.6 28.1-24.45 28.1-26.95L28.1-26.95Q28.1-30.85 30.35-33.13 32.6-35.4 36.2-35.4L36.2-35.4Q40-35.4 42.27-32.93 44.55-30.45 44.55-26.35L44.55-26.35 44.55-25.1Q44.55-24.6 44.05-24.6L44.05-24.6 41.55-24.6Q41.05-24.6 41.05-25.1L41.05-25.1 41.05-26.4Q41.05-29.05 39.72-30.68 38.4-32.3 36.2-32.3L36.2-32.3Q34.2-32.3 32.9-30.88 31.6-29.45 31.6-26.85L31.6-26.85Q31.6-25.3 32.17-24.13 32.75-22.95 33.9-21.9 35.05-20.85 37.3-19.15L37.3-19.15Q40.3-16.95 41.77-15.58 43.25-14.2 44.05-12.58 44.85-10.95 44.85-8.65L44.85-8.65Q44.85-4.55 42.5-2.08 40.15 0.4 36.45 0.4L36.45 0.4Z" opacity="1" transform="matrix(1,0,0,1,0,0)" fill="black" class="wordmark-text-0" id="SvgjsPath2223" stroke-width="5" stroke="black" stroke-linejoin="round"></path></svg></g></svg></g></svg></g></svg></g></svg></g></svg></g></svg></g></mask><g transform="matrix(1,0,0,1,99.47073529411763,37.08)"><svg viewBox="0 0 196.57852941176472 173.04" height="173.04" width="196.57852941176472"><g><svg viewBox="0 0 196.57852941176472 173.04" height="173.04" width="196.57852941176472"><g><svg viewBox="0 0 196.57852941176472 173.04" height="173.04" width="196.57852941176472"><g><svg viewBox="0 0 196.57852941176472 173.04" height="173.04" width="196.57852941176472"><g id="textblocktransform"><svg viewBox="0 0 196.57852941176472 173.04" height="173.04" width="196.57852941176472" id="textblock"><g><svg viewBox="0 0 196.57852941176472 173.04" height="173.04" width="196.57852941176472"><g transform="matrix(1,0,0,1,0,0)"><svg width="196.57852941176472" viewBox="0.49999999999999956 -38.4 47.35 41.8" height="173.04" data-palette-color="#ef4444"><path d="M18.85-34.65Q19-35 19.45-35L19.45-35 22.05-35Q22.55-35 22.55-34.5L22.55-34.5 22.55-0.5Q22.55 0 22.05 0L22.05 0 19.5 0Q19 0 19-0.5L19-0.5 19-27.3Q19-27.45 18.93-27.45 18.85-27.45 18.75-27.35L18.75-27.35 13.55-16.55Q13.4-16.2 13.05-16.2L13.05-16.2Q12.65-16.2 12.5-16.55L12.5-16.55 7.3-27.3Q7.2-27.4 7.13-27.4 7.05-27.4 7.05-27.25L7.05-27.25 7.05-0.5Q7.05 0 6.55 0L6.55 0 4 0Q3.5 0 3.5-0.5L3.5-0.5 3.5-34.5Q3.5-35 4-35L4-35 6.6-35Q7.05-35 7.2-34.65L7.2-34.65 12.9-23.1Q12.95-23 13.05-23 13.15-23 13.2-23.1L13.2-23.1 18.85-34.65ZM36.45 0.4Q32.75 0.4 30.45-2.05 28.15-4.5 28.15-8.45L28.15-8.45 28.15-9.6Q28.15-10.1 28.65-10.1L28.65-10.1 31.1-10.1Q31.6-10.1 31.6-9.6L31.6-9.6 31.6-8.6Q31.6-5.95 32.95-4.33 34.3-2.7 36.45-2.7L36.45-2.7Q38.55-2.7 39.95-4.25 41.35-5.8 41.35-8.35L41.35-8.35Q41.35-10.05 40.67-11.28 40-12.5 38.92-13.43 37.85-14.35 35.35-16.25L35.35-16.25Q32.85-18.1 31.4-19.43 29.95-20.75 29.02-22.6 28.1-24.45 28.1-26.95L28.1-26.95Q28.1-30.85 30.35-33.13 32.6-35.4 36.2-35.4L36.2-35.4Q40-35.4 42.27-32.93 44.55-30.45 44.55-26.35L44.55-26.35 44.55-25.1Q44.55-24.6 44.05-24.6L44.05-24.6 41.55-24.6Q41.05-24.6 41.05-25.1L41.05-25.1 41.05-26.4Q41.05-29.05 39.72-30.68 38.4-32.3 36.2-32.3L36.2-32.3Q34.2-32.3 32.9-30.88 31.6-29.45 31.6-26.85L31.6-26.85Q31.6-25.3 32.17-24.13 32.75-22.95 33.9-21.9 35.05-20.85 37.3-19.15L37.3-19.15Q40.3-16.95 41.77-15.58 43.25-14.2 44.05-12.58 44.85-10.95 44.85-8.65L44.85-8.65Q44.85-4.55 42.5-2.08 40.15 0.4 36.45 0.4L36.45 0.4Z" opacity="1" transform="matrix(1,0,0,1,0,0)" fill="#ef4444" class="wordmark-text-0" data-fill-palette-color="primary" id="text-0"></path></svg></g></svg></g></svg></g></svg></g></svg></g></svg></g></svg></g><g mask="url(#846f0c10-f18a-4bcd-9f8c-72a0d58315c5)"><g transform="matrix(2.452, 0, 0, 2.452, 105.081756, 1)"><svg version="1.1" xmlns="http://www.w3.org/2000/svg" xmlns:xlink="http://www.w3.org/1999/xlink" x="0" y="0" viewBox="0 0 75.594 100" enable-background="new 0 0 75.594 100" xml:space="preserve" width="75.594" height="100" class="icon-none" data-fill-palette-color="accent" id="none"><path d="M37.797 14c11.494 0 22.461 2.284 32.492 6.394l5.305-12.996C63.932 2.633 51.173 0 37.797 0S11.662 2.633 0 7.398l5.305 12.996C15.336 16.284 26.303 14 37.797 14z" fill="#ef4444" data-fill-palette-color="accent"></path><path d="M37.797 18c-10.959 0-21.416 2.177-30.98 6.096L37.797 100l30.98-75.904C59.213 20.178 48.756 18 37.797 18zM20.297 36c0-4.418 3.582-8 8-8s8 3.582 8 8-3.582 8-8 8S20.297 40.418 20.297 36zM37.797 69c-2.762 0-5-2.238-5-5s2.238-5 5-5 5 2.238 5 5S40.559 69 37.797 69zM51.297 39c-3.313 0-6-2.687-6-6s2.687-6 6-6 6 2.687 6 6S54.61 39 51.297 39z" fill="#ef4444" data-fill-palette-color="accent"></path></svg></g></g></svg></g><defs></defs></svg><rect width="395.52" height="247.2" fill="none" stroke="none" visibility="hidden"></rect></g></svg></g></svg>